{
	"asset":{
		"generator":"Khronos glTF Blender I/O v4.3.47",
		"version":"2.0"
	},
	"scene":0,
	"scenes":[
		{
			"name":"Scene",
			"nodes":[
				0
			]
		}
	],
	"nodes":[
		{
			"mesh":0,
			"name":"roadStraight(Clone).001",
			"translation":[
				2.7760684490203857,
				-0.012141693383455276,
				0.29078853130340576
			]
		}
	],
	"materials":[
		{
			"name":"grass.001",
			"pbrMetallicRoughness":{
				"baseColorFactor":[
					0.3019607961177826,
					0.5607843399047852,
					0.4313725531101227,
					1
				],
				"metallicFactor":0
			}
		},
		{
			"name":"grey.001",
			"pbrMetallicRoughness":{
				"baseColorFactor":[
					0.9450980424880981,
					0.9490196108818054,
					0.9647058844566345,
					1
				],
				"metallicFactor":0
			}
		},
		{
			"name":"road.001",
			"pbrMetallicRoughness":{
				"baseColorFactor":[
					0.2666666805744171,
					0.2666666805744171,
					0.2666666805744171,
					1
				],
				"metallicFactor":0
			}
		},
		{
			"name":"grey",
			"pbrMetallicRoughness":{
				"baseColorFactor":[
					0.9450980424880981,
					0.9490196108818054,
					0.9647058844566345,
					1
				],
				"metallicFactor":0
			}
		},
		{
			"name":"grass",
			"pbrMetallicRoughness":{
				"baseColorFactor":[
					0.3019607961177826,
					0.5607843399047852,
					0.4313725531101227,
					1
				],
				"metallicFactor":0
			}
		},
		{
			"name":"road",
			"pbrMetallicRoughness":{
				"baseColorFactor":[
					0.2666666805744171,
					0.2666666805744171,
					0.2666666805744171,
					1
				],
				"metallicFactor":0
			}
		},
		{
			"name":"grey.002",
			"pbrMetallicRoughness":{
				"baseColorFactor":[
					0.9450980424880981,
					0.9490196108818054,
					0.9647058844566345,
					1
				],
				"metallicFactor":0
			}
		},
		{
			"name":"grass.002",
			"pbrMetallicRoughness":{
				"baseColorFactor":[
					0.3019607961177826,
					0.5607843399047852,
					0.4313725531101227,
					1
				],
				"metallicFactor":0
			}
		},
		{
			"name":"road.002",
			"pbrMetallicRoughness":{
				"baseColorFactor":[
					0.2666666805744171,
					0.2666666805744171,
					0.2666666805744171,
					1
				],
				"metallicFactor":0
			}
		}
	],
	"meshes":[
		{
			"name":"Mesh roadStraight.003",
			"primitives":[
				{
					"attributes":{
						"POSITION":0,
						"NORMAL":1,
						"TEXCOORD_0":2
					},
					"indices":3,
					"material":0
				},
				{
					"attributes":{
						"POSITION":4,
						"NORMAL":5,
						"TEXCOORD_0":6
					},
					"indices":7,
					"material":1
				},
				{
					"attributes":{
						"POSITION":8,
						"NORMAL":9,
						"TEXCOORD_0":10
					},
					"indices":11,
					"material":2
				},
				{
					"attributes":{
						"POSITION":12,
						"NORMAL":13,
						"TEXCOORD_0":14
					},
					"indices":15,
					"material":3
				},
				{
					"attributes":{
						"POSITION":16,
						"NORMAL":17,
						"TEXCOORD_0":18
					},
					"indices":19,
					"material":4
				},
				{
					"attributes":{
						"POSITION":20,
						"NORMAL":21,
						"TEXCOORD_0":22
					},
					"indices":23,
					"material":5
				},
				{
					"attributes":{
						"POSITION":24,
						"NORMAL":25,
						"TEXCOORD_0":26
					},
					"indices":27,
					"material":6
				},
				{
					"attributes":{
						"POSITION":28,
						"NORMAL":29,
						"TEXCOORD_0":30
					},
					"indices":31,
					"material":7
				},
				{
					"attributes":{
						"POSITION":32,
						"NORMAL":33,
						"TEXCOORD_0":34
					},
					"indices":35,
					"material":8
				}
			]
		}
	],
	"accessors":[
		{
			"bufferView":0,
			"componentType":5126,
			"count":64,
			"max":[
				1.000885009765625,
				0.013391304761171341,
				1.0414272546768188
			],
			"min":[
				-2.9998645782470703,
				-5.36283478140831e-05,
				-3.9581751823425293
			],
			"type":"VEC3"
		},
		{
			"bufferView":1,
			"componentType":5126,
			"count":64,
			"type":"VEC3"
		},
		{
			"bufferView":2,
			"componentType":5126,
			"count":64,
			"type":"VEC2"
		},
		{
			"bufferView":3,
			"componentType":5123,
			"count":96,
			"type":"SCALAR"
		},
		{
			"bufferView":4,
			"componentType":5126,
			"count":192,
			"max":[
				0.9192323088645935,
				0.033391304314136505,
				1.0414272546768188
			],
			"min":[
				-2.9182119369506836,
				-5.36283478140831e-05,
				-3.9581751823425293
			],
			"type":"VEC3"
		},
		{
			"bufferView":5,
			"componentType":5126,
			"count":192,
			"type":"VEC3"
		},
		{
			"bufferView":6,
			"componentType":5126,
			"count":192,
			"type":"VEC2"
		},
		{
			"bufferView":7,
			"componentType":5123,
			"count":288,
			"type":"SCALAR"
		},
		{
			"bufferView":8,
			"componentType":5126,
			"count":32,
			"max":[
				0.8460201621055603,
				0.023391304537653923,
				1.0414272546768188
			],
			"min":[
				-2.8449997901916504,
				0.009946371428668499,
				-3.9581751823425293
			],
			"type":"VEC3"
		},
		{
			"bufferView":9,
			"componentType":5126,
			"count":32,
			"type":"VEC3"
		},
		{
			"bufferView":10,
			"componentType":5126,
			"count":32,
			"type":"VEC2"
		},
		{
			"bufferView":11,
			"componentType":5123,
			"count":48,
			"type":"SCALAR"
		},
		{
			"bufferView":12,
			"componentType":5126,
			"count":277,
			"max":[
				-1.8660683631896973,
				0.6703417301177979,
				-0.9407885074615479
			],
			"min":[
				-3.126068353652954,
				0.0021416936069726944,
				-2.940788507461548
			],
			"type":"VEC3"
		},
		{
			"bufferView":13,
			"componentType":5126,
			"count":277,
			"type":"VEC3"
		},
		{
			"bufferView":14,
			"componentType":5126,
			"count":277,
			"type":"VEC2"
		},
		{
			"bufferView":15,
			"componentType":5123,
			"count":498,
			"type":"SCALAR"
		},
		{
			"bufferView":16,
			"componentType":5126,
			"count":12,
			"max":[
				-1.9960683584213257,
				0.0021416936069726944,
				-0.9407885074615479
			],
			"min":[
				-2.9960684776306152,
				0.0021416936069726944,
				-2.940788507461548
			],
			"type":"VEC3"
		},
		{
			"bufferView":17,
			"componentType":5126,
			"count":12,
			"type":"VEC3"
		},
		{
			"bufferView":18,
			"componentType":5126,
			"count":12,
			"type":"VEC2"
		},
		{
			"bufferView":19,
			"componentType":5123,
			"count":24,
			"type":"SCALAR"
		},
		{
			"bufferView":20,
			"componentType":5126,
			"count":16,
			"max":[
				-2.1196036338806152,
				0.6534193158149719,
				-0.9407885074615479
			],
			"min":[
				-2.872533082962036,
				0.012141693383455276,
				-2.940788507461548
			],
			"type":"VEC3"
		},
		{
			"bufferView":21,
			"componentType":5126,
			"count":16,
			"type":"VEC3"
		},
		{
			"bufferView":22,
			"componentType":5126,
			"count":16,
			"type":"VEC2"
		},
		{
			"bufferView":23,
			"componentType":5123,
			"count":24,
			"type":"SCALAR"
		},
		{
			"bufferView":24,
			"componentType":5126,
			"count":976,
			"max":[
				0.9202998876571655,
				0.027399130165576935,
				2.899000644683838
			],
			"min":[
				-2.9209718704223633,
				0.0021416936069726944,
				-5.8456010818481445
			],
			"type":"VEC3"
		},
		{
			"bufferView":25,
			"componentType":5126,
			"count":976,
			"type":"VEC3"
		},
		{
			"bufferView":26,
			"componentType":5126,
			"count":976,
			"type":"VEC2"
		},
		{
			"bufferView":27,
			"componentType":5123,
			"count":1728,
			"type":"SCALAR"
		},
		{
			"bufferView":28,
			"componentType":5126,
			"count":208,
			"max":[
				1.0019423961639404,
				0.007399130612611771,
				2.980630397796631
			],
			"min":[
				-3.00262451171875,
				0.0021416936069726944,
				-5.927250862121582
			],
			"type":"VEC3"
		},
		{
			"bufferView":29,
			"componentType":5126,
			"count":208,
			"type":"VEC3"
		},
		{
			"bufferView":30,
			"componentType":5126,
			"count":208,
			"type":"VEC2"
		},
		{
			"bufferView":31,
			"componentType":5123,
			"count":576,
			"type":"SCALAR"
		},
		{
			"bufferView":32,
			"componentType":5126,
			"count":104,
			"max":[
				0.8470967411994934,
				0.017399130389094353,
				2.8258090019226074
			],
			"min":[
				-2.84775972366333,
				0.012141693383455276,
				-5.772391319274902
			],
			"type":"VEC3"
		},
		{
			"bufferView":33,
			"componentType":5126,
			"count":104,
			"type":"VEC3"
		},
		{
			"bufferView":34,
			"componentType":5126,
			"count":104,
			"type":"VEC2"
		},
		{
			"bufferView":35,
			"componentType":5123,
			"count":288,
			"type":"SCALAR"
		}
	],
	"bufferViews":[
		{
			"buffer":0,
			"byteLength":768,
			"byteOffset":0,
			"target":34962
		},
		{
			"buffer":0,
			"byteLength":768,
			"byteOffset":768,
			"target":34962
		},
		{
			"buffer":0,
			"byteLength":512,
			"byteOffset":1536,
			"target":34962
		},
		{
			"buffer":0,
			"byteLength":192,
			"byteOffset":2048,
			"target":34963
		},
		{
			"buffer":0,
			"byteLength":2304,
			"byteOffset":2240,
			"target":34962
		},
		{
			"buffer":0,
			"byteLength":2304,
			"byteOffset":4544,
			"target":34962
		},
		{
			"buffer":0,
			"byteLength":1536,
			"byteOffset":6848,
			"target":34962
		},
		{
			"buffer":0,
			"byteLength":576,
			"byteOffset":8384,
			"target":34963
		},
		{
			"buffer":0,
			"byteLength":384,
			"byteOffset":8960,
			"target":34962
		},
		{
			"buffer":0,
			"byteLength":384,
			"byteOffset":9344,
			"target":34962
		},
		{
			"buffer":0,
			"byteLength":256,
			"byteOffset":9728,
			"target":34962
		},
		{
			"buffer":0,
			"byteLength":96,
			"byteOffset":9984,
			"target":34963
		},
		{
			"buffer":0,
			"byteLength":3324,
			"byteOffset":10080,
			"target":34962
		},
		{
			"buffer":0,
			"byteLength":3324,
			"byteOffset":13404,
			"target":34962
		},
		{
			"buffer":0,
			"byteLength":2216,
			"byteOffset":16728,
			"target":34962
		},
		{
			"buffer":0,
			"byteLength":996,
			"byteOffset":18944,
			"target":34963
		},
		{
			"buffer":0,
			"byteLength":144,
			"byteOffset":19940,
			"target":34962
		},
		{
			"buffer":0,
			"byteLength":144,
			"byteOffset":20084,
			"target":34962
		},
		{
			"buffer":0,
			"byteLength":96,
			"byteOffset":20228,
			"target":34962
		},
		{
			"buffer":0,
			"byteLength":48,
			"byteOffset":20324,
			"target":34963
		},
		{
			"buffer":0,
			"byteLength":192,
			"byteOffset":20372,
			"target":34962
		},
		{
			"buffer":0,
			"byteLength":192,
			"byteOffset":20564,
			"target":34962
		},
		{
			"buffer":0,
			"byteLength":128,
			"byteOffset":20756,
			"target":34962
		},
		{
			"buffer":0,
			"byteLength":48,
			"byteOffset":20884,
			"target":34963
		},
		{
			"buffer":0,
			"byteLength":11712,
			"byteOffset":20932,
			"target":34962
		},
		{
			"buffer":0,
			"byteLength":11712,
			"byteOffset":32644,
			"target":34962
		},
		{
			"buffer":0,
			"byteLength":7808,
			"byteOffset":44356,
			"target":34962
		},
		{
			"buffer":0,
			"byteLength":3456,
			"byteOffset":52164,
			"target":34963
		},
		{
			"buffer":0,
			"byteLength":2496,
			"byteOffset":55620,
			"target":34962
		},
		{
			"buffer":0,
			"byteLength":2496,
			"byteOffset":58116,
			"target":34962
		},
		{
			"buffer":0,
			"byteLength":1664,
			"byteOffset":60612,
			"target":34962
		},
		{
			"buffer":0,
			"byteLength":1152,
			"byteOffset":62276,
			"target":34963
		},
		{
			"buffer":0,
			"byteLength":1248,
			"byteOffset":63428,
			"target":34962
		},
		{
			"buffer":0,
			"byteLength":1248,
			"byteOffset":64676,
			"target":34962
		},
		{
			"buffer":0,
			"byteLength":832,
			"byteOffset":65924,
			"target":34962
		},
		{
			"buffer":0,
			"byteLength":576,
			"byteOffset":66756,
			"target":34963
		}
	],
	"buffers":[
		{
			"byteLength":67332,
			"uri":"racing_track.bin"
		}
	]
}
